<svg width="184" height="61" viewBox="0 0 184 61" fill="none" xmlns="http://www.w3.org/2000/svg">
<rect width="184" height="61" rx="7" fill="white"/>
<path d="M125.007 29.2813V32.7751H122.805V35.0663H125.007V42.8514C125.007 45.5097 126.216 46.5731 129.258 46.5731C129.792 46.5731 130.301 46.5098 130.747 46.4338V44.1679C130.365 44.2059 130.123 44.2312 129.703 44.2312C128.341 44.2312 127.743 43.5983 127.743 42.1552V35.0663H130.747V32.7751H127.743V29.2813H125.007Z" fill="#222222"/>
<path d="M138.496 46.763C142.544 46.763 145.025 44.0667 145.025 39.5981C145.025 35.1549 142.531 32.446 138.496 32.446C134.449 32.446 131.954 35.1549 131.954 39.5981C131.954 44.0667 134.436 46.763 138.496 46.763ZM138.496 44.3451C136.116 44.3451 134.78 42.6109 134.78 39.5981C134.78 36.6107 136.116 34.8638 138.496 34.8638C140.863 34.8638 142.213 36.6107 142.213 39.5981C142.213 42.5982 140.863 44.3451 138.496 44.3451Z" fill="#222222"/>
<path d="M147.149 46.4971H149.885V38.3576C149.885 36.4208 151.349 35.117 153.424 35.117C153.907 35.117 154.722 35.2056 154.951 35.2815V32.5979C154.658 32.5219 154.137 32.4839 153.729 32.4839C151.922 32.4839 150.382 33.4713 149.987 34.8258H149.784V32.7118H147.149V46.4971Z" fill="#222222"/>
<path d="M161.746 34.7625C163.77 34.7625 165.093 36.1676 165.157 38.3323H158.157C158.309 36.1803 159.722 34.7625 161.746 34.7625ZM165.144 42.7755C164.635 43.8515 163.502 44.4464 161.848 44.4464C159.658 44.4464 158.246 42.9147 158.157 40.4969V40.345H167.944V39.3956C167.944 35.0663 165.615 32.446 161.759 32.446C157.851 32.446 155.369 35.2435 155.369 39.6488C155.369 44.054 157.8 46.763 161.771 46.763C164.94 46.763 167.155 45.2439 167.779 42.7755H165.144Z" fill="#222222"/>
<path d="M107.061 41.4064C107.272 44.7915 110.108 46.9563 114.33 46.9563C118.842 46.9563 121.665 44.6865 121.665 41.0653C121.665 38.2182 120.055 36.6437 116.15 35.7384L114.053 35.2267C111.573 34.6494 110.57 33.8753 110.57 32.5239C110.57 30.8183 112.127 29.7031 114.462 29.7031C116.678 29.7031 118.208 30.792 118.485 32.5371H121.361C121.19 29.3488 118.367 27.1052 114.501 27.1052C110.346 27.1052 107.576 29.3488 107.576 32.7207C107.576 35.5023 109.145 37.1554 112.589 37.9558L115.042 38.5462C117.562 39.1366 118.67 40.0025 118.67 41.4458C118.67 43.1252 116.929 44.3454 114.554 44.3454C112.008 44.3454 110.24 43.2039 109.99 41.4064H107.061Z" fill="#222222"/>
<path d="M78.7138 32.4839C76.8301 32.4839 75.2009 33.4207 74.3609 34.9904H74.1573V32.7118H71.5226V51.0796H74.2591V44.4084H74.4754C75.2009 45.8642 76.7665 46.725 78.7393 46.725C82.2394 46.725 84.4668 43.978 84.4668 39.5981C84.4668 35.2182 82.2394 32.4839 78.7138 32.4839ZM77.9374 44.2818C75.6464 44.2818 74.2082 42.4843 74.2082 39.6108C74.2082 36.7246 75.6464 34.9271 77.9502 34.9271C80.2666 34.9271 81.654 36.6866 81.654 39.5981C81.654 42.5223 80.2666 44.2818 77.9374 44.2818Z" fill="#222222"/>
<path d="M94.0422 32.4839C92.1585 32.4839 90.5294 33.4207 89.6893 34.9904H89.4857V32.7118H86.851V51.0796H89.5875V44.4084H89.8039C90.5294 45.8642 92.0949 46.725 94.0677 46.725C97.5679 46.725 99.7952 43.978 99.7952 39.5981C99.7952 35.2182 97.5679 32.4839 94.0422 32.4839ZM93.2659 44.2818C90.9748 44.2818 89.5366 42.4843 89.5366 39.6108C89.5366 36.7246 90.9748 34.9271 93.2786 34.9271C95.595 34.9271 96.9824 36.6866 96.9824 39.5981C96.9824 42.5223 95.595 44.2818 93.2659 44.2818Z" fill="#222222"/>
<path d="M66.6128 46.4971H69.7526L62.8795 27.5644H59.7002L52.8271 46.4971H55.8613L57.6159 41.472H64.8715L66.6128 46.4971ZM61.1381 31.002H61.3624L64.1195 39.0054H58.3678L61.1381 31.002Z" fill="#222222"/>
<path d="M54.665 13.2841V22.4173H57.9806C60.7171 22.4173 62.3018 20.7401 62.3018 17.8222C62.3018 14.9487 60.7044 13.2841 57.9806 13.2841H54.665ZM56.0906 14.5753H57.8215C59.7244 14.5753 60.8508 15.7779 60.8508 17.8412C60.8508 19.9362 59.7435 21.1262 57.8215 21.1262H56.0906V14.5753Z" fill="#222222"/>
<path d="M67.1549 22.5503C69.1786 22.5503 70.4196 21.2021 70.4196 18.9679C70.4196 16.7463 69.1723 15.3918 67.1549 15.3918C65.1312 15.3918 63.8838 16.7463 63.8838 18.9679C63.8838 21.2021 65.1248 22.5503 67.1549 22.5503ZM67.1549 21.3414C65.9648 21.3414 65.2966 20.4742 65.2966 18.9679C65.2966 17.4741 65.9648 16.6007 67.1549 16.6007C68.3386 16.6007 69.0132 17.4741 69.0132 18.9679C69.0132 20.4679 68.3386 21.3414 67.1549 21.3414Z" fill="#222222"/>
<path d="M80.9875 15.5247H79.6193L78.3847 20.7844H78.2765L76.851 15.5247H75.54L74.1145 20.7844H74.0127L72.7717 15.5247H71.3844L73.2935 22.4173H74.7L76.1255 17.3412H76.2337L77.6656 22.4173H79.0847L80.9875 15.5247Z" fill="#222222"/>
<path d="M82.5632 22.4173H83.9315V18.3856C83.9315 17.3096 84.5742 16.6387 85.5861 16.6387C86.598 16.6387 87.0816 17.1893 87.0816 18.2969V22.4173H88.4499V17.9552C88.4499 16.3159 87.5971 15.3918 86.0507 15.3918C85.007 15.3918 84.3197 15.8538 83.9824 16.6197H83.8806V15.5247H82.5632V22.4173Z" fill="#222222"/>
<path d="M90.6047 22.4173H91.973V12.8347H90.6047V22.4173Z" fill="#222222"/>
<path d="M97.1188 22.5503C99.1426 22.5503 100.384 21.2021 100.384 18.9679C100.384 16.7463 99.1362 15.3918 97.1188 15.3918C95.0951 15.3918 93.8478 16.7463 93.8478 18.9679C93.8478 21.2021 95.0887 22.5503 97.1188 22.5503ZM97.1188 21.3414C95.9288 21.3414 95.2606 20.4742 95.2606 18.9679C95.2606 17.4741 95.9288 16.6007 97.1188 16.6007C98.3025 16.6007 98.9771 17.4741 98.9771 18.9679C98.9771 20.4679 98.3025 21.3414 97.1188 21.3414Z" fill="#222222"/>
<path d="M104.46 21.3857C103.716 21.3857 103.175 21.0249 103.175 20.4046C103.175 19.797 103.607 19.4742 104.562 19.4109L106.255 19.3033V19.8793C106.255 20.7337 105.491 21.3857 104.46 21.3857ZM104.11 22.5313C105.02 22.5313 105.778 22.1389 106.191 21.449H106.299V22.4173H107.617V17.7083C107.617 16.2526 106.637 15.3918 104.899 15.3918C103.327 15.3918 102.207 16.1513 102.067 17.3349H103.391C103.544 16.8475 104.072 16.569 104.836 16.569C105.771 16.569 106.255 16.9804 106.255 17.7083V18.3033L104.378 18.4109C102.729 18.5121 101.8 19.2274 101.8 20.4679C101.8 21.7274 102.774 22.5313 104.11 22.5313Z" fill="#222222"/>
<path d="M112.26 22.5313C113.214 22.5313 114.023 22.0819 114.436 21.3287H114.545V22.4173H115.856V12.8347H114.487V16.6197H114.385C114.01 15.8601 113.208 15.4108 112.26 15.4108C110.51 15.4108 109.383 16.7906 109.383 18.9679C109.383 21.1515 110.497 22.5313 112.26 22.5313ZM112.648 16.6323C113.794 16.6323 114.513 17.5374 114.513 18.9742C114.513 20.4173 113.8 21.3097 112.648 21.3097C111.49 21.3097 110.796 20.4299 110.796 18.9679C110.796 17.5184 111.496 16.6323 112.648 16.6323Z" fill="#222222"/>
<path d="M124.728 22.5503C126.752 22.5503 127.993 21.2021 127.993 18.9679C127.993 16.7463 126.745 15.3918 124.728 15.3918C122.704 15.3918 121.457 16.7463 121.457 18.9679C121.457 21.2021 122.698 22.5503 124.728 22.5503ZM124.728 21.3414C123.538 21.3414 122.87 20.4742 122.87 18.9679C122.87 17.4741 123.538 16.6007 124.728 16.6007C125.912 16.6007 126.586 17.4741 126.586 18.9679C126.586 20.4679 125.912 21.3414 124.728 21.3414Z" fill="#222222"/>
<path d="M129.804 22.4173H131.172V18.3856C131.172 17.3096 131.815 16.6387 132.827 16.6387C133.839 16.6387 134.322 17.1893 134.322 18.2969V22.4173H135.691V17.9552C135.691 16.3159 134.838 15.3918 133.291 15.3918C132.248 15.3918 131.56 15.8538 131.223 16.6197H131.121V15.5247H129.804V22.4173Z" fill="#222222"/>
<path d="M141.992 13.8094V15.5563H140.891V16.7019H141.992V20.5945C141.992 21.9237 142.597 22.4553 144.118 22.4553C144.385 22.4553 144.64 22.4237 144.862 22.3857V21.2527C144.671 21.2717 144.55 21.2844 144.34 21.2844C143.66 21.2844 143.36 20.9679 143.36 20.2464V16.7019H144.862V15.5563H143.36V13.8094H141.992Z" fill="#222222"/>
<path d="M146.699 22.4173H148.067V18.3919C148.067 17.3475 148.691 16.645 149.811 16.645C150.778 16.645 151.294 17.202 151.294 18.3033V22.4173H152.662V17.9678C152.662 16.3285 151.752 15.3981 150.275 15.3981C149.232 15.3981 148.5 15.8601 148.163 16.6323H148.054V12.8347H146.699V22.4173Z" fill="#222222"/>
<path d="M157.598 16.55C158.61 16.55 159.272 17.2526 159.303 18.3349H155.803C155.88 17.2589 156.586 16.55 157.598 16.55ZM159.297 20.5565C159.042 21.0945 158.476 21.392 157.649 21.392C156.554 21.392 155.848 20.6261 155.803 19.4172V19.3413H160.697V18.8666C160.697 16.7019 159.532 15.3918 157.604 15.3918C155.65 15.3918 154.409 16.7906 154.409 18.9932C154.409 21.1958 155.625 22.5503 157.611 22.5503C159.195 22.5503 160.302 21.7907 160.614 20.5565H159.297Z" fill="#222222"/>
<path d="M37.9793 30.9586C38.0125 28.3951 39.3967 25.9694 41.5926 24.6267C40.2073 22.659 37.887 21.4114 35.4729 21.3363C32.898 21.0675 30.4018 22.8686 29.0898 22.8686C27.7523 22.8686 25.7321 21.363 23.5567 21.4075C20.7212 21.4986 18.0778 23.102 16.6982 25.5675C13.7328 30.6738 15.9447 38.1784 18.7854 42.306C20.2067 44.3272 21.8677 46.5848 24.0411 46.5048C26.1679 46.417 26.9623 45.1559 29.5295 45.1559C32.073 45.1559 32.8182 46.5048 35.0357 46.4539C37.3179 46.417 38.7558 44.4237 40.1272 42.3834C41.1483 40.9433 41.9341 39.3516 42.4554 37.6674C39.7734 36.5392 37.9824 33.8548 37.9793 30.9586Z" fill="#202020"/>
<path d="M33.7907 18.6218C35.035 17.1361 35.6481 15.2265 35.4996 13.2986C33.5986 13.4972 31.8425 14.4008 30.5813 15.8295C29.3481 17.2254 28.7063 19.1013 28.8277 20.9556C30.7294 20.9751 32.599 20.0959 33.7907 18.6218Z" fill="#202020"/>
</svg>
