<svg width="208" height="61" viewBox="0 0 208 61" fill="none" xmlns="http://www.w3.org/2000/svg">
<rect width="208" height="61" rx="5" fill="white"/>
<path d="M104.98 33.1704C101.356 33.1704 98.4023 35.8987 98.4023 39.6563C98.4023 43.391 101.356 46.1421 104.98 46.1421C108.605 46.1421 111.559 43.391 111.559 39.6563C111.557 35.8987 108.604 33.1704 104.98 33.1704ZM104.98 43.5892C102.994 43.5892 101.282 41.9682 101.282 39.6578C101.282 37.323 102.995 35.7263 104.98 35.7263C106.966 35.7263 108.677 37.323 108.677 39.6578C108.677 41.9666 106.966 43.5892 104.98 43.5892ZM90.6292 33.1704C87.0054 33.1704 84.0518 35.8987 84.0518 39.6563C84.0518 43.391 87.0054 46.1421 90.6292 46.1421C94.2546 46.1421 97.2082 43.391 97.2082 39.6563C97.2082 35.8987 94.2546 33.1704 90.6292 33.1704ZM90.6292 43.5892C88.6432 43.5892 86.9314 41.9682 86.9314 39.6578C86.9314 37.323 88.6448 35.7263 90.6292 35.7263C92.6152 35.7263 94.327 37.323 94.327 39.6578C94.3286 41.9666 92.6152 43.5892 90.6292 43.5892ZM73.5609 35.1621V37.9132H80.2138C80.0151 39.4611 79.4943 40.5911 78.6993 41.3765C77.7317 42.3342 76.2171 43.391 73.5609 43.391C69.4656 43.391 66.264 40.1229 66.264 36.0695C66.264 32.016 69.4656 28.7479 73.5609 28.7479C75.7703 28.7479 77.3835 29.608 78.5745 30.7137L80.5358 28.7723C78.8718 27.2001 76.664 25.9968 73.5609 25.9968C67.9511 25.9968 63.2349 30.5169 63.2349 36.0695C63.2349 41.622 67.9511 46.1421 73.5609 46.1421C76.5885 46.1421 78.8734 45.1585 80.6591 43.3163C82.4957 41.4985 83.0673 38.9426 83.0673 36.8792C83.0673 36.2418 83.018 35.6516 82.9178 35.1606H73.5609V35.1621ZM143.369 37.2986C142.823 35.8499 141.159 33.1704 137.759 33.1704C134.383 33.1704 131.577 35.7995 131.577 39.6563C131.577 43.2919 134.359 46.1421 138.081 46.1421C141.084 46.1421 142.822 44.3243 143.543 43.2675L141.309 41.7928C140.565 42.874 139.546 43.5862 138.081 43.5862C136.617 43.5862 135.574 42.9228 134.904 41.6205L143.666 38.0337L143.369 37.2986ZM134.432 39.4611C134.359 36.954 136.394 35.6775 137.859 35.6775C139.001 35.6775 139.968 36.2433 140.292 37.0531L134.432 39.4611ZM127.31 45.7502H130.188V26.6861H127.31V45.7502ZM122.592 34.6207H122.493C121.848 33.8582 120.606 33.1704 119.044 33.1704C115.766 33.1704 112.764 36.0207 112.764 39.6822C112.764 43.3178 115.766 46.1436 119.044 46.1436C120.607 46.1436 121.848 45.4558 122.493 44.6705H122.592V45.6038C122.592 48.0849 121.251 49.4117 119.093 49.4117C117.33 49.4117 116.238 48.1597 115.791 47.1028L113.284 48.1353C114.004 49.8539 115.914 51.9676 119.093 51.9676C122.469 51.9676 125.324 50.0019 125.324 45.2103V33.5654H122.593V34.6207H122.592ZM119.292 43.5892C117.306 43.5892 115.643 41.9422 115.643 39.6822C115.643 37.3962 117.306 35.7263 119.292 35.7263C121.251 35.7263 122.791 37.3962 122.791 39.6822C122.791 41.9422 121.251 43.5892 119.292 43.5892ZM156.856 26.6861H149.968V45.7502H152.841V38.5278H156.855C160.041 38.5278 163.175 36.2448 163.175 32.6077C163.175 28.9706 160.043 26.6861 156.856 26.6861ZM156.93 35.8743H152.841V29.3396H156.93C159.08 29.3396 160.3 31.101 160.3 32.6077C160.3 34.0839 159.08 35.8743 156.93 35.8743ZM174.698 33.1369C172.617 33.1369 170.461 34.0443 169.569 36.0557L172.121 37.1095C172.666 36.0557 173.683 35.7111 174.748 35.7111C176.234 35.7111 177.746 36.5941 177.77 38.1633V38.36C177.25 38.0657 176.134 37.625 174.772 37.625C172.022 37.625 169.221 39.121 169.221 41.9163C169.221 44.4676 171.477 46.1101 174.003 46.1101C175.935 46.1101 177.002 45.2515 177.67 44.245H177.769V45.7166H180.545V38.4073C180.547 35.0248 177.992 33.1369 174.698 33.1369ZM174.35 43.5847C173.41 43.5847 172.096 43.118 172.096 41.9651C172.096 40.4935 173.732 39.9292 175.145 39.9292C176.407 39.9292 177.003 40.1992 177.77 40.5667C177.547 42.3342 176.011 43.5847 174.35 43.5847ZM190.656 33.5532L187.36 41.8187H187.261L183.841 33.5532H180.744L185.873 45.1051L182.949 51.5314H185.947L193.853 33.5532H190.656ZM164.762 45.7502H167.635V26.6861H164.762V45.7502Z" fill="#222222"/>
<path d="M73.059 15.6204C73.059 16.8983 72.6769 17.9155 71.9112 18.6749C71.0422 19.5777 69.9082 20.0291 68.5154 20.0291C67.1811 20.0291 66.0456 19.5716 65.1134 18.6566C64.1797 17.7401 63.7129 16.6055 63.7129 15.2513C63.7129 13.8956 64.1797 12.761 65.1134 11.846C66.0456 10.9295 67.1811 10.472 68.5154 10.472C69.1779 10.472 69.8111 10.6001 70.412 10.8547C71.0145 11.1109 71.4967 11.451 71.8572 11.8765L71.0453 12.6817C70.4336 11.9573 69.5908 11.5959 68.5138 11.5959C67.5401 11.5959 66.6988 11.9344 65.9886 12.6115C65.2783 13.2886 64.9239 14.1686 64.9239 15.2498C64.9239 16.331 65.2783 17.2109 65.9886 17.888C66.6988 18.5651 67.5401 18.9037 68.5138 18.9037C69.5461 18.9037 70.4074 18.5636 71.0961 17.8819C71.5429 17.4382 71.8018 16.8205 71.8711 16.0291H68.5138V14.9295H72.9928C73.039 15.169 73.059 15.3992 73.059 15.6204Z" fill="#222222"/>
<path d="M80.162 11.7988H75.9527V14.6994H79.7491V15.7989H75.9527V18.6994H80.162V19.8249H74.7648V10.6749H80.162V11.7988Z" fill="#222222"/>
<path d="M85.1708 19.8249H83.9828V11.7988H81.4006V10.6749H87.753V11.7988H85.1708V19.8249Z" fill="#222222"/>
<path d="M92.349 19.8249V10.6749H93.5369V19.8249H92.349Z" fill="#222222"/>
<path d="M98.805 19.8249H97.617V11.7988H95.0348V10.6749H101.387V11.7988H98.805V19.8249Z" fill="#222222"/>
<path d="M113.412 18.643C112.503 19.5671 111.374 20.0292 110.023 20.0292C108.672 20.0292 107.542 19.5671 106.635 18.643C105.726 17.7188 105.273 16.5873 105.273 15.2499C105.273 13.9124 105.726 12.7809 106.635 11.8567C107.542 10.9326 108.672 10.469 110.023 10.469C111.366 10.469 112.494 10.9341 113.406 11.8628C114.318 12.7916 114.774 13.9201 114.774 15.2499C114.774 16.5873 114.32 17.7188 113.412 18.643ZM107.511 17.8759C108.195 18.5622 109.032 18.9038 110.023 18.9038C111.013 18.9038 111.852 18.5606 112.534 17.8759C113.218 17.1897 113.562 16.3143 113.562 15.2499C113.562 14.1854 113.218 13.3101 112.534 12.6238C111.852 11.9376 111.013 11.596 110.023 11.596C109.032 11.596 108.195 11.9391 107.511 12.6238C106.829 13.3101 106.485 14.1854 106.485 15.2499C106.485 16.3143 106.829 17.1897 107.511 17.8759Z" fill="#222222"/>
<path d="M116.441 19.8249V10.6749H117.887L122.38 17.7921H122.43L122.38 16.0292V10.6749H123.567V19.8249H122.327L117.626 12.3615H117.575L117.626 14.1244V19.8249H116.441Z" fill="#222222"/>
<path d="M73.059 15.6204C73.059 16.8983 72.6769 17.9155 71.9112 18.6749C71.0422 19.5777 69.9082 20.0291 68.5154 20.0291C67.1811 20.0291 66.0456 19.5716 65.1134 18.6566C64.1797 17.7401 63.7129 16.6055 63.7129 15.2513C63.7129 13.8956 64.1797 12.761 65.1134 11.846C66.0456 10.9295 67.1811 10.472 68.5154 10.472C69.1779 10.472 69.8111 10.6001 70.412 10.8547C71.0145 11.1109 71.4967 11.451 71.8572 11.8765L71.0453 12.6817C70.4336 11.9573 69.5908 11.5959 68.5138 11.5959C67.5401 11.5959 66.6988 11.9344 65.9886 12.6115C65.2783 13.2886 64.9239 14.1686 64.9239 15.2498C64.9239 16.331 65.2783 17.2109 65.9886 17.888C66.6988 18.5651 67.5401 18.9037 68.5138 18.9037C69.5461 18.9037 70.4074 18.5636 71.0961 17.8819C71.5429 17.4382 71.8018 16.8205 71.8711 16.0291H68.5138V14.9295H72.9928C73.039 15.169 73.059 15.3992 73.059 15.6204Z" stroke="white" stroke-width="0.2" stroke-miterlimit="10"/>
<path d="M80.162 11.7988H75.9527V14.6994H79.7491V15.7989H75.9527V18.6994H80.162V19.8249H74.7648V10.6749H80.162V11.7988Z" stroke="white" stroke-width="0.2" stroke-miterlimit="10"/>
<path d="M85.1708 19.8249H83.9828V11.7988H81.4006V10.6749H87.753V11.7988H85.1708V19.8249Z" stroke="white" stroke-width="0.2" stroke-miterlimit="10"/>
<path d="M92.349 19.8249V10.6749H93.5369V19.8249H92.349Z" stroke="white" stroke-width="0.2" stroke-miterlimit="10"/>
<path d="M98.805 19.8249H97.617V11.7988H95.0348V10.6749H101.387V11.7988H98.805V19.8249Z" stroke="white" stroke-width="0.2" stroke-miterlimit="10"/>
<path d="M113.412 18.643C112.503 19.5671 111.374 20.0292 110.023 20.0292C108.672 20.0292 107.542 19.5671 106.635 18.643C105.726 17.7188 105.273 16.5873 105.273 15.2499C105.273 13.9124 105.726 12.7809 106.635 11.8567C107.542 10.9326 108.672 10.469 110.023 10.469C111.366 10.469 112.494 10.9341 113.406 11.8628C114.318 12.7916 114.774 13.9201 114.774 15.2499C114.774 16.5873 114.32 17.7188 113.412 18.643ZM107.511 17.8759C108.195 18.5622 109.032 18.9038 110.023 18.9038C111.013 18.9038 111.852 18.5606 112.534 17.8759C113.218 17.1897 113.562 16.3143 113.562 15.2499C113.562 14.1854 113.218 13.3101 112.534 12.6238C111.852 11.9376 111.013 11.596 110.023 11.596C109.032 11.596 108.195 11.9391 107.511 12.6238C106.829 13.3101 106.485 14.1854 106.485 15.2499C106.485 16.3143 106.829 17.1897 107.511 17.8759Z" stroke="white" stroke-width="0.2" stroke-miterlimit="10"/>
<path d="M116.441 19.8249V10.6749H117.887L122.38 17.7921H122.43L122.38 16.0292V10.6749H123.567V19.8249H122.327L117.626 12.3615H117.575L117.626 14.1244V19.8249H116.441Z" stroke="white" stroke-width="0.2" stroke-miterlimit="10"/>
<g filter="url(#filter0_ii_10_5501)">
<path d="M16.0791 11.4954C15.6307 11.9651 15.3657 12.694 15.3657 13.638V47.3649C15.3657 48.3104 15.6307 49.0378 16.0791 49.5075L16.1931 49.6173L35.2813 30.7241V30.5014V30.2788L16.1931 11.384L16.0791 11.4954Z" fill="url(#paint0_linear_10_5501)"/>
<path d="M41.643 37.024L35.2812 30.7243V30.5016V30.279L41.6445 23.9807L41.7878 24.0615L49.3266 28.301C51.4791 29.5119 51.4791 31.4929 49.3266 32.7052L41.7878 36.9447L41.643 37.024Z" fill="url(#paint1_linear_10_5501)"/>
<g filter="url(#filter1_i_10_5501)">
<path d="M41.7879 36.9431L35.2798 30.5015L16.0791 49.5075C16.7878 50.2517 17.9603 50.3432 19.2808 49.6021L41.7879 36.9431Z" fill="url(#paint2_linear_10_5501)"/>
</g>
<path d="M41.7879 24.0599L19.2808 11.4024C17.9603 10.6597 16.7878 10.7528 16.0791 11.497L35.2814 30.503L41.7879 24.0599Z" fill="url(#paint3_linear_10_5501)"/>
</g>
<defs>
<filter id="filter0_ii_10_5501" x="15.3657" y="10.8899" width="35.5752" height="39.2241" filterUnits="userSpaceOnUse" color-interpolation-filters="sRGB">
<feFlood flood-opacity="0" result="BackgroundImageFix"/>
<feBlend mode="normal" in="SourceGraphic" in2="BackgroundImageFix" result="shape"/>
<feColorMatrix in="SourceAlpha" type="matrix" values="0 0 0 0 0 0 0 0 0 0 0 0 0 0 0 0 0 0 127 0" result="hardAlpha"/>
<feOffset dy="-0.15"/>
<feComposite in2="hardAlpha" operator="arithmetic" k2="-1" k3="1"/>
<feColorMatrix type="matrix" values="0 0 0 0 0 0 0 0 0 0 0 0 0 0 0 0 0 0 0.12 0"/>
<feBlend mode="normal" in2="shape" result="effect1_innerShadow_10_5501"/>
<feColorMatrix in="SourceAlpha" type="matrix" values="0 0 0 0 0 0 0 0 0 0 0 0 0 0 0 0 0 0 127 0" result="hardAlpha"/>
<feOffset dy="0.15"/>
<feComposite in2="hardAlpha" operator="arithmetic" k2="-1" k3="1"/>
<feColorMatrix type="matrix" values="0 0 0 0 1 0 0 0 0 1 0 0 0 0 1 0 0 0 0.25 0"/>
<feBlend mode="normal" in2="effect1_innerShadow_10_5501" result="effect2_innerShadow_10_5501"/>
</filter>
<filter id="filter1_i_10_5501" x="16.0791" y="30.5015" width="25.709" height="19.6125" filterUnits="userSpaceOnUse" color-interpolation-filters="sRGB">
<feFlood flood-opacity="0" result="BackgroundImageFix"/>
<feBlend mode="normal" in="SourceGraphic" in2="BackgroundImageFix" result="shape"/>
<feColorMatrix in="SourceAlpha" type="matrix" values="0 0 0 0 0 0 0 0 0 0 0 0 0 0 0 0 0 0 127 0" result="hardAlpha"/>
<feOffset dy="-0.15"/>
<feComposite in2="hardAlpha" operator="arithmetic" k2="-1" k3="1"/>
<feColorMatrix type="matrix" values="0 0 0 0 0 0 0 0 0 0 0 0 0 0 0 0 0 0 0.08 0"/>
<feBlend mode="normal" in2="shape" result="effect1_innerShadow_10_5501"/>
</filter>
<linearGradient id="paint0_linear_10_5501" x1="33.5893" y1="13.2811" x2="7.9981" y2="39.1365" gradientUnits="userSpaceOnUse">
<stop stop-color="#00A0FF"/>
<stop offset="0.0066" stop-color="#00A1FF"/>
<stop offset="0.2601" stop-color="#00BEFF"/>
<stop offset="0.5122" stop-color="#00D2FF"/>
<stop offset="0.7604" stop-color="#00DFFF"/>
<stop offset="1" stop-color="#00E3FF"/>
</linearGradient>
<linearGradient id="paint1_linear_10_5501" x1="52.1285" y1="30.5016" x2="14.8489" y2="30.5016" gradientUnits="userSpaceOnUse">
<stop stop-color="#FFE000"/>
<stop offset="0.4087" stop-color="#FFBD00"/>
<stop offset="0.7754" stop-color="#FFA500"/>
<stop offset="1" stop-color="#FF9C00"/>
</linearGradient>
<linearGradient id="paint2_linear_10_5501" x1="38.2536" y1="33.9997" x2="3.54872" y2="69.0628" gradientUnits="userSpaceOnUse">
<stop stop-color="#FF3A44"/>
<stop offset="1" stop-color="#C31162"/>
</linearGradient>
<linearGradient id="paint3_linear_10_5501" x1="11.2433" y1="0.269604" x2="26.74" y2="15.9262" gradientUnits="userSpaceOnUse">
<stop stop-color="#32A071"/>
<stop offset="0.0685" stop-color="#2DA771"/>
<stop offset="0.4762" stop-color="#15CF74"/>
<stop offset="0.8009" stop-color="#06E775"/>
<stop offset="1" stop-color="#00F076"/>
</linearGradient>
</defs>
</svg>
